<svg width="419" height="419" viewBox="0 0 419 419" fill="none" xmlns="http://www.w3.org/2000/svg">
<rect width="419" height="419" fill="black"/>
<path d="M261.263 137.482C297.558 135.675 343.931 136.874 381.066 136.957L381.047 171.43C364.501 172.426 279.128 168.848 271.639 176.678C267.232 181.288 268.499 193.833 268.528 199.877L375.898 199.75L375.818 230.199C340.628 230.855 304.142 230.551 268.854 230.706L268.778 281.088L226.526 280.737C226.907 251.081 219.569 175.573 233.773 152.852C240.292 142.422 250.062 140.05 261.263 137.482Z" fill="#57C5DE"/>
<path d="M166.67 138.404C180.895 138.194 195.557 138.374 209.82 138.374L209.875 173.472C210.141 228.609 221.84 284.4 145.677 282.641C116.921 282.331 47.9093 290.118 41.2363 249.346C36.1615 218.34 38.4341 170.571 38.4844 138.538C51.5192 137.944 67.8989 138.365 81.1891 138.342L81.0225 195.994C80.9607 219.481 75.0473 246.302 106.315 246.186C166.188 245.962 167.18 253.148 166.777 192.966L166.67 138.404Z" fill="#FEFEFE"/>
</svg>
